<svg xmlns="http://www.w3.org/2000/svg" viewBox="0 0 60 18"><path d="M5 1.2v6.4c0 1 .4 1.6 1.1 1.6.3 0 .6-.1.8-.3.2-.3.3-.5.3-.9 0-.3-.1-.6-.3-.8-.2-.2-.4-.3-.7-.3-.3 0-.5.1-.8.3V4h.8c1.1 0 2 .4 2.8 1.2.8.8 1.2 1.7 1.2 2.9 0 1.1-.4 2.1-1.2 2.9s-1.8 1-2.9 1c-.6 0-1.2-.1-1.7-.4s-1-.6-1.4-1c-.6-.7-.9-1.7-.9-2.9V1.2H5zm9.4 2.9v7.8h-2.9V4.1h2.9zM13 .6c.4 0 .7.1 1 .4.3.3.4.6.4 1s-.1.7-.4 1c-.3.3-.6.4-1.1.4-.4 0-.8-.1-1.1-.4-.3-.3-.4-.6-.4-1s.1-.7.4-1c.4-.2.8-.4 1.2-.4zm10.8 7.9h-4.4c-.1-.2-.1-.4-.1-.6 0-.3 0-.5.1-.8h1.5c-.1-.6-.4-.9-1-.9-.4 0-.7.2-.9.5-.2.3-.3.7-.3 1.2s.1.9.3 1.2c.2.3.5.5.9.5.3 0 .6-.1.8-.4l1.7 2c-.8.6-1.6.9-2.6.9-1.2 0-2.1-.4-2.9-1.2-.8-.8-1.2-1.7-1.2-2.9 0-1.1.4-2.1 1.2-2.9.8-.8 1.8-1.2 2.9-1.2 1.1 0 2.1.4 2.8 1.2.8.8 1.2 1.7 1.2 2.8v.6zm8.1 3.4H29V7.5c0-.4-.2-.7-.6-.7-.4 0-.5.2-.5.7v4.4H25V7.5c0-1 .3-1.9 1-2.6s1.5-1 2.5-1c1.1 0 2 .4 2.7 1.2.5.6.8 1.5.8 2.6v4.2zm5.4-8c1.1 0 2.1.4 2.8 1.2.9.8 1.3 1.8 1.3 2.9 0 1.1-.4 2.1-1.2 2.9-.8.8-1.8 1.2-2.9 1.2s-2.1-.4-2.9-1.2-1.2-1.8-1.2-2.9c0-1.1.4-2.1 1.2-2.9.8-.8 1.8-1.2 2.9-1.2zm0 2.9c-.3 0-.6.1-.8.3s-.4.6-.4.9c0 .3.1.6.3.8.3.2.6.4.9.4.3 0 .6-.1.8-.3.2-.2.3-.5.3-.8 0-.3-.1-.6-.3-.8s-.5-.5-.8-.5zm11.1-2.7l-3.6 8.1-3.6-8.1H44l.8 2.1.9-2.1h2.7z"/></svg>